<svg width="21.869629" height="18.000000" viewBox="0 0 21.8696 18" fill="none" xmlns="http://www.w3.org/2000/svg" xmlns:xlink="http://www.w3.org/1999/xlink">
	<desc>
			Created with Pixso.
	</desc>
	<defs/>
	<path d="M21.77 2.15C21.08 2.47 20.31 2.66 19.56 2.78C19.92 2.72 20.44 2.08 20.65 1.82C20.97 1.42 21.24 0.97 21.38 0.48C21.4 0.44 21.42 0.39 21.38 0.37C21.33 0.35 21.3 0.36 21.26 0.38C20.43 0.82 19.56 1.15 18.64 1.38C18.56 1.4 18.51 1.38 18.46 1.33C18.38 1.24 18.31 1.16 18.23 1.1C17.84 0.77 17.43 0.51 16.96 0.32C16.35 0.07 15.67 -0.04 15.01 0C14.37 0.05 13.73 0.23 13.16 0.53C12.59 0.83 12.08 1.24 11.67 1.74C11.25 2.26 10.94 2.88 10.78 3.53C10.63 4.16 10.64 4.78 10.73 5.41C10.75 5.52 10.74 5.53 10.64 5.52C7.04 4.98 4.06 3.69 1.63 0.93C1.53 0.81 1.47 0.81 1.39 0.94C0.33 2.53 0.84 5.08 2.16 6.34C2.34 6.5 2.52 6.67 2.72 6.82C2.65 6.84 1.77 6.74 0.98 6.34C0.87 6.27 0.82 6.31 0.81 6.43C0.8 6.6 0.82 6.76 0.84 6.94C1.04 8.56 2.16 10.05 3.69 10.63C3.87 10.7 4.07 10.77 4.27 10.8C3.92 10.88 3.56 10.94 2.56 10.86C2.44 10.83 2.39 10.9 2.44 11.01C3.19 13.06 4.81 13.67 6.02 14.02C6.18 14.04 6.34 14.04 6.51 14.08C6.5 14.1 6.49 14.1 6.48 14.11C6.08 14.72 4.68 15.18 4.03 15.41C2.85 15.82 1.56 16.01 0.31 15.88C0.12 15.85 0.07 15.86 0.02 15.88C-0.04 15.92 0.01 15.96 0.08 16.02C0.33 16.18 0.59 16.33 0.85 16.48C1.64 16.9 2.47 17.23 3.33 17.47C7.8 18.7 12.83 17.8 16.18 14.47C18.81 11.85 19.73 8.24 19.73 4.63C19.73 4.49 19.9 4.41 20 4.34C20.69 3.82 21.24 3.21 21.75 2.52C21.86 2.37 21.86 2.23 21.86 2.17C21.86 2.16 21.86 2.15 21.86 2.15C21.86 2.09 21.86 2.11 21.77 2.15Z" fill="#FFFFFF" fill-opacity="1.000000" fill-rule="nonzero"/>
</svg>
