<svg width="13.938477" height="18.000000" viewBox="0 0 13.9385 18" fill="none" xmlns="http://www.w3.org/2000/svg" xmlns:xlink="http://www.w3.org/1999/xlink">
	<desc>
			Created with Pixso.
	</desc>
	<defs/>
	<path d="M5.82 11.74C5.81 11.79 5.79 11.83 5.78 11.88C5.12 14.47 5.05 15.04 4.37 16.24C4.04 16.82 3.68 17.36 3.28 17.88C3.23 17.94 3.19 18.01 3.1 17.99C3 17.97 2.99 17.88 2.98 17.8C2.87 17.01 2.81 16.22 2.84 15.43C2.87 14.4 3 14.04 4.33 8.43C4.35 8.34 4.33 8.27 4.3 8.19C3.98 7.33 3.92 6.46 4.2 5.57C4.8 3.66 6.97 3.51 7.35 5.09C7.59 6.07 6.97 7.35 6.49 9.23C6.1 10.79 7.93 11.9 9.5 10.76C10.95 9.71 11.51 7.2 11.4 5.42C11.19 1.86 7.3 1.09 4.82 2.24C1.99 3.55 1.34 7.06 2.62 8.67C2.79 8.87 2.91 9 2.86 9.21C2.78 9.53 2.7 9.85 2.61 10.17C2.55 10.41 2.35 10.5 2.11 10.4C1.64 10.21 1.24 9.91 0.92 9.51C-0.16 8.16 -0.47 5.5 0.96 3.25C2.56 0.75 5.52 -0.26 8.22 0.05C11.45 0.42 13.49 2.62 13.87 5.13C14.05 6.27 13.92 9.08 12.32 11.07C10.48 13.35 7.5 13.5 6.12 12.1C6.01 11.99 5.93 11.86 5.82 11.74Z" fill="#FFFFFF" fill-opacity="1.000000" fill-rule="evenodd"/>
</svg>
