<svg width="15.403320" height="18.000000" viewBox="0 0 15.4033 18" fill="none" xmlns="http://www.w3.org/2000/svg" xmlns:xlink="http://www.w3.org/1999/xlink">
	<desc>
			Created with Pixso.
	</desc>
	<defs/>
	<path d="M15.4 7.28C15.25 7.29 15.1 7.3 14.95 7.3C13.33 7.3 11.82 6.48 10.93 5.13L10.93 12.53C10.93 15.55 8.48 18 5.46 18C2.44 18 0 15.55 0 12.53C0 9.51 2.44 7.06 5.46 7.06C5.58 7.06 5.69 7.07 5.8 7.07L5.8 9.77C5.69 9.76 5.58 9.74 5.46 9.74C3.92 9.74 2.67 10.99 2.67 12.53C2.67 14.07 3.92 15.32 5.46 15.32C7.01 15.32 8.37 14.1 8.37 12.56L8.39 0L10.97 0C11.22 2.31 13.08 4.11 15.4 4.28L15.4 7.28L15.4 7.28Z" fill="#FFFFFF" fill-opacity="1.000000" fill-rule="nonzero"/>
</svg>
